<svg width="81" height="46" viewBox="0 0 81 46" fill="none" xmlns="http://www.w3.org/2000/svg">
<path d="M1.44 24.46C1.44 22.38 1.46667 20.5067 1.52 18.84C1.58667 17.16 1.66667 15.6333 1.76 14.26C1.86667 12.8733 1.98 11.5867 2.1 10.4C2.23333 9.2 2.36 8.05333 2.48 6.96L5.92 7.1C5.86667 7.51333 5.80667 7.96 5.74 8.44C6.19333 9.05333 6.68667 9.75333 7.22 10.54C7.76667 11.3267 8.32 12.16 8.88 13.04C9.45333 13.9067 10.0133 14.78 10.56 15.66C11.1067 16.5267 11.6267 17.36 12.12 18.16C12.6133 18.9467 13.0467 19.6533 13.42 20.28C13.5133 19.36 13.56 18.0667 13.56 16.4C13.56 15.5467 13.5467 14.6667 13.52 13.76C13.4933 12.8533 13.46 11.9867 13.42 11.16C13.38 10.32 13.3267 9.57333 13.26 8.92C13.1933 8.25333 13.12 7.73333 13.04 7.36L16.8 6.9C16.8267 7.55333 16.84 8.41333 16.84 9.48C16.8533 10.5333 16.86 11.6533 16.86 12.84C16.86 13.8933 16.8533 14.9533 16.84 16.02C16.8267 17.0733 16.8 18.0467 16.76 18.94C16.72 19.8333 16.66 20.5733 16.58 21.16C16.4333 22.3067 16.14 23.1533 15.7 23.7C15.26 24.2467 14.64 24.52 13.84 24.52C13.1867 24.52 12.5867 24.2933 12.04 23.84C11.5067 23.3867 10.9267 22.64 10.3 21.6C9.87333 20.88 9.37333 20.0533 8.8 19.12C8.24 18.1733 7.65333 17.2067 7.04 16.22C6.44 15.2333 5.86 14.2933 5.3 13.4C5.19333 14.96 5.11333 16.52 5.06 18.08C5.00667 19.6267 4.98 21.0267 4.98 22.28C4.98 22.68 4.98 23.0533 4.98 23.4C4.98 23.76 4.98667 24.0933 5 24.4L1.44 24.46ZM25.3008 24.6C24.0208 24.6 22.8941 24.3467 21.9208 23.84C20.9608 23.3467 20.2074 22.6533 19.6608 21.76C19.1274 20.8667 18.8608 19.8333 18.8608 18.66C18.8608 17.9533 18.9808 17.2133 19.2208 16.44C19.4608 15.6533 19.8474 14.92 20.3808 14.24C20.9141 13.56 21.6141 13.0067 22.4808 12.58C23.3608 12.1533 24.4274 11.94 25.6808 11.94C26.5874 11.94 27.3474 12.04 27.9608 12.24C28.5874 12.44 29.0941 12.7 29.4808 13.02C29.8808 13.34 30.1808 13.68 30.3808 14.04C30.5941 14.4 30.7341 14.7467 30.8008 15.08C30.8808 15.4 30.9208 15.6667 30.9208 15.88C30.9208 17.1733 30.3741 18.1733 29.2808 18.88C28.2008 19.5733 26.6674 19.92 24.6808 19.92C24.2274 19.92 23.7941 19.9 23.3808 19.86C22.9808 19.82 22.6074 19.7733 22.2608 19.72C22.5141 20.3867 22.9341 20.88 23.5208 21.2C24.1074 21.5067 24.7141 21.66 25.3408 21.66C26.2474 21.66 27.0474 21.5 27.7408 21.18C28.4341 20.8467 29.0874 20.34 29.7008 19.66L31.4808 22.22C31.0541 22.5667 30.5741 22.9267 30.0408 23.3C29.5208 23.6733 28.8808 23.98 28.1208 24.22C27.3608 24.4733 26.4208 24.6 25.3008 24.6ZM25.7408 14.94C24.9541 14.94 24.2608 15.14 23.6608 15.54C23.0608 15.94 22.6208 16.4667 22.3408 17.12C22.6741 17.1733 23.0008 17.22 23.3208 17.26C23.6541 17.2867 23.9808 17.3 24.3008 17.3C24.5941 17.3 24.9274 17.2733 25.3008 17.22C25.6874 17.1667 26.0608 17.0867 26.4208 16.98C26.7941 16.8733 27.1008 16.74 27.3408 16.58C27.5808 16.4067 27.7008 16.2067 27.7008 15.98C27.7008 15.8733 27.6474 15.74 27.5408 15.58C27.4341 15.42 27.2408 15.2733 26.9608 15.14C26.6808 15.0067 26.2741 14.94 25.7408 14.94ZM37.4703 24.64C36.3636 24.64 35.4236 23.78 34.6503 22.06C34.3836 21.4467 34.1503 20.7733 33.9503 20.04C33.7503 19.3067 33.577 18.56 33.4303 17.8C33.297 17.04 33.1836 16.3133 33.0903 15.62C33.0103 14.9133 32.9436 14.2933 32.8903 13.76C32.8503 13.2133 32.817 12.8 32.7903 12.52L36.0703 11.76C36.2303 14.7867 36.4703 17.0867 36.7903 18.66C37.1236 20.2333 37.377 21.02 37.5503 21.02C37.6436 21.02 37.757 20.8333 37.8903 20.46C38.037 20.0867 38.197 19.5933 38.3703 18.98C38.5436 18.3533 38.7103 17.6667 38.8703 16.92C39.0303 16.1733 39.1703 15.42 39.2903 14.66C39.1303 13.6867 39.0236 12.9133 38.9703 12.34L42.3503 12.22V12.46C42.3503 13.0067 42.3903 13.6467 42.4703 14.38C42.5503 15.1133 42.6503 15.8733 42.7703 16.66C42.8903 17.4333 43.017 18.1533 43.1503 18.82C43.297 19.4867 43.437 20.0267 43.5703 20.44C43.7036 20.8533 43.817 21.06 43.9103 21.06C43.9903 21.06 44.1036 20.88 44.2503 20.52C44.397 20.16 44.557 19.6667 44.7303 19.04C44.917 18.4133 45.1036 17.7 45.2903 16.9C45.477 16.0867 45.657 15.2333 45.8303 14.34C46.0036 13.4333 46.1436 12.5333 46.2503 11.64L49.5503 12.34C49.3236 13.6067 49.0503 14.8667 48.7303 16.12C48.4236 17.36 48.097 18.5133 47.7503 19.58C47.4036 20.6333 47.0636 21.52 46.7303 22.24C45.9836 23.8267 45.057 24.62 43.9503 24.62C43.5903 24.62 43.177 24.5067 42.7103 24.28C42.257 24.0667 41.837 23.6133 41.4503 22.92C41.317 22.6667 41.1836 22.36 41.0503 22C40.917 21.64 40.7903 21.24 40.6703 20.8C40.5103 21.2933 40.3503 21.7333 40.1903 22.12C39.4836 23.8 38.577 24.64 37.4703 24.64ZM57.0939 24.66C56.1872 24.66 55.3472 24.5533 54.5739 24.34C53.8006 24.1267 53.1006 23.8533 52.4739 23.52C51.8472 23.1867 51.2872 22.8333 50.7939 22.46L52.5939 19.56C53.1539 20.08 53.6939 20.48 54.2139 20.76C54.7339 21.04 55.2739 21.2333 55.8339 21.34C56.4072 21.4467 57.0272 21.5 57.6939 21.5C58.2672 21.5 58.7272 21.4267 59.0739 21.28C59.4206 21.12 59.5939 20.92 59.5939 20.68C59.5939 20.48 59.4272 20.3267 59.0939 20.22C58.7606 20.1 58.3339 20 57.8139 19.92C57.2939 19.8267 56.7472 19.7133 56.1739 19.58C55.3606 19.3667 54.6006 19.12 53.8939 18.84C53.1872 18.56 52.6139 18.18 52.1739 17.7C51.7472 17.22 51.5339 16.58 51.5339 15.78C51.5339 15.14 51.6872 14.58 51.9939 14.1C52.3006 13.6067 52.7072 13.2 53.2139 12.88C53.7339 12.5467 54.3206 12.3 54.9739 12.14C55.6272 11.98 56.3006 11.9 56.9939 11.9C58.1939 11.9 59.2272 12.0467 60.0939 12.34C60.9739 12.62 61.8139 12.9933 62.6139 13.46L60.7939 16.22C60.3939 15.94 59.9339 15.7 59.4139 15.5C58.9072 15.2867 58.3939 15.1267 57.8739 15.02C57.3672 14.9 56.8939 14.84 56.4539 14.84C55.9739 14.84 55.5939 14.9133 55.3139 15.06C55.0472 15.2067 54.9139 15.4133 54.9139 15.68C54.9139 15.84 55.0806 15.9933 55.4139 16.14C55.7606 16.2733 56.4139 16.4533 57.3739 16.68C57.9472 16.8133 58.5539 16.9533 59.1939 17.1C59.8339 17.2333 60.4339 17.4267 60.9939 17.68C61.5672 17.92 62.0272 18.2733 62.3739 18.74C62.7339 19.1933 62.9139 19.8 62.9139 20.56C62.9139 21.84 62.4006 22.84 61.3739 23.56C60.3472 24.2933 58.9206 24.66 57.0939 24.66Z" fill="#1C1C1C"/>
<path d="M0.028 43L4.508 33.2H5.53L10.01 43H8.918L4.802 33.802H5.222L1.106 43H0.028ZM1.792 40.382L2.1 39.542H7.798L8.106 40.382H1.792ZM14.4888 45.786C13.8168 45.786 13.1728 45.688 12.5568 45.492C11.9408 45.296 11.4415 45.016 11.0588 44.652L11.5628 43.896C11.9081 44.204 12.3328 44.4467 12.8368 44.624C13.3501 44.8107 13.8915 44.904 14.4608 44.904C15.3941 44.904 16.0801 44.6847 16.5188 44.246C16.9575 43.8167 17.1768 43.1447 17.1768 42.23V40.396L17.3168 39.136L17.2188 37.876V35.65H18.1708V42.104C18.1708 43.3733 17.8581 44.302 17.2328 44.89C16.6168 45.4873 15.7021 45.786 14.4888 45.786ZM14.3068 42.72C13.6068 42.72 12.9768 42.5707 12.4168 42.272C11.8568 41.964 11.4135 41.5393 11.0868 40.998C10.7695 40.4567 10.6108 39.836 10.6108 39.136C10.6108 38.436 10.7695 37.82 11.0868 37.288C11.4135 36.7467 11.8568 36.3267 12.4168 36.028C12.9768 35.7293 13.6068 35.58 14.3068 35.58C14.9601 35.58 15.5481 35.7153 16.0708 35.986C16.5935 36.2567 17.0088 36.658 17.3168 37.19C17.6248 37.722 17.7788 38.3707 17.7788 39.136C17.7788 39.9013 17.6248 40.55 17.3168 41.082C17.0088 41.614 16.5935 42.02 16.0708 42.3C15.5481 42.58 14.9601 42.72 14.3068 42.72ZM14.4048 41.838C14.9461 41.838 15.4268 41.726 15.8468 41.502C16.2668 41.2687 16.5981 40.9513 16.8408 40.55C17.0835 40.1393 17.2048 39.668 17.2048 39.136C17.2048 38.604 17.0835 38.1373 16.8408 37.736C16.5981 37.3347 16.2668 37.022 15.8468 36.798C15.4268 36.5647 14.9461 36.448 14.4048 36.448C13.8728 36.448 13.3921 36.5647 12.9628 36.798C12.5428 37.022 12.2115 37.3347 11.9688 37.736C11.7355 38.1373 11.6188 38.604 11.6188 39.136C11.6188 39.668 11.7355 40.1393 11.9688 40.55C12.2115 40.9513 12.5428 41.2687 12.9628 41.502C13.3921 41.726 13.8728 41.838 14.4048 41.838ZM24.0728 45.786C23.4008 45.786 22.7568 45.688 22.1408 45.492C21.5248 45.296 21.0254 45.016 20.6428 44.652L21.1468 43.896C21.4921 44.204 21.9168 44.4467 22.4208 44.624C22.9341 44.8107 23.4754 44.904 24.0448 44.904C24.9781 44.904 25.6641 44.6847 26.1028 44.246C26.5414 43.8167 26.7608 43.1447 26.7608 42.23V40.396L26.9008 39.136L26.8028 37.876V35.65H27.7548V42.104C27.7548 43.3733 27.4421 44.302 26.8168 44.89C26.2008 45.4873 25.2861 45.786 24.0728 45.786ZM23.8908 42.72C23.1908 42.72 22.5608 42.5707 22.0008 42.272C21.4408 41.964 20.9974 41.5393 20.6708 40.998C20.3534 40.4567 20.1948 39.836 20.1948 39.136C20.1948 38.436 20.3534 37.82 20.6708 37.288C20.9974 36.7467 21.4408 36.3267 22.0008 36.028C22.5608 35.7293 23.1908 35.58 23.8908 35.58C24.5441 35.58 25.1321 35.7153 25.6548 35.986C26.1774 36.2567 26.5928 36.658 26.9008 37.19C27.2088 37.722 27.3628 38.3707 27.3628 39.136C27.3628 39.9013 27.2088 40.55 26.9008 41.082C26.5928 41.614 26.1774 42.02 25.6548 42.3C25.1321 42.58 24.5441 42.72 23.8908 42.72ZM23.9888 41.838C24.5301 41.838 25.0108 41.726 25.4308 41.502C25.8508 41.2687 26.1821 40.9513 26.4248 40.55C26.6674 40.1393 26.7888 39.668 26.7888 39.136C26.7888 38.604 26.6674 38.1373 26.4248 37.736C26.1821 37.3347 25.8508 37.022 25.4308 36.798C25.0108 36.5647 24.5301 36.448 23.9888 36.448C23.4568 36.448 22.9761 36.5647 22.5468 36.798C22.1268 37.022 21.7954 37.3347 21.5528 37.736C21.3194 38.1373 21.2028 38.604 21.2028 39.136C21.2028 39.668 21.3194 40.1393 21.5528 40.55C21.7954 40.9513 22.1268 41.2687 22.5468 41.502C22.9761 41.726 23.4568 41.838 23.9888 41.838ZM30.5208 43V35.65H31.4728V37.652L31.3748 37.302C31.5801 36.742 31.9254 36.3173 32.4108 36.028C32.8961 35.7293 33.4981 35.58 34.2168 35.58V36.546C34.1794 36.546 34.1421 36.546 34.1048 36.546C34.0674 36.5367 34.0301 36.532 33.9928 36.532C33.2181 36.532 32.6114 36.77 32.1728 37.246C31.7341 37.7127 31.5148 38.38 31.5148 39.248V43H30.5208ZM39.0842 43.07C38.3188 43.07 37.6468 42.9113 37.0682 42.594C36.4895 42.2673 36.0368 41.824 35.7102 41.264C35.3835 40.6947 35.2202 40.046 35.2202 39.318C35.2202 38.59 35.3742 37.946 35.6822 37.386C35.9995 36.826 36.4288 36.3873 36.9702 36.07C37.5208 35.7433 38.1368 35.58 38.8182 35.58C39.5088 35.58 40.1202 35.7387 40.6522 36.056C41.1935 36.364 41.6182 36.8027 41.9262 37.372C42.2342 37.932 42.3882 38.5807 42.3882 39.318C42.3882 39.3647 42.3835 39.416 42.3742 39.472C42.3742 39.5187 42.3742 39.57 42.3742 39.626H35.9762V38.884H41.8422L41.4502 39.178C41.4502 38.646 41.3335 38.1747 41.1002 37.764C40.8762 37.344 40.5682 37.0173 40.1762 36.784C39.7842 36.5507 39.3315 36.434 38.8182 36.434C38.3142 36.434 37.8615 36.5507 37.4602 36.784C37.0588 37.0173 36.7462 37.344 36.5222 37.764C36.2982 38.184 36.1862 38.6647 36.1862 39.206V39.36C36.1862 39.92 36.3075 40.4147 36.5502 40.844C36.8022 41.264 37.1475 41.5953 37.5862 41.838C38.0342 42.0713 38.5428 42.188 39.1122 42.188C39.5602 42.188 39.9755 42.1087 40.3582 41.95C40.7502 41.7913 41.0862 41.5487 41.3662 41.222L41.9262 41.866C41.5995 42.258 41.1888 42.5567 40.6942 42.762C40.2088 42.9673 39.6722 43.07 39.0842 43.07ZM47.5474 45.786C46.8754 45.786 46.2314 45.688 45.6154 45.492C44.9994 45.296 44.5001 45.016 44.1174 44.652L44.6214 43.896C44.9667 44.204 45.3914 44.4467 45.8954 44.624C46.4087 44.8107 46.9501 44.904 47.5194 44.904C48.4527 44.904 49.1387 44.6847 49.5774 44.246C50.0161 43.8167 50.2354 43.1447 50.2354 42.23V40.396L50.3754 39.136L50.2774 37.876V35.65H51.2294V42.104C51.2294 43.3733 50.9167 44.302 50.2914 44.89C49.6754 45.4873 48.7607 45.786 47.5474 45.786ZM47.3654 42.72C46.6654 42.72 46.0354 42.5707 45.4754 42.272C44.9154 41.964 44.4721 41.5393 44.1454 40.998C43.8281 40.4567 43.6694 39.836 43.6694 39.136C43.6694 38.436 43.8281 37.82 44.1454 37.288C44.4721 36.7467 44.9154 36.3267 45.4754 36.028C46.0354 35.7293 46.6654 35.58 47.3654 35.58C48.0187 35.58 48.6067 35.7153 49.1294 35.986C49.6521 36.2567 50.0674 36.658 50.3754 37.19C50.6834 37.722 50.8374 38.3707 50.8374 39.136C50.8374 39.9013 50.6834 40.55 50.3754 41.082C50.0674 41.614 49.6521 42.02 49.1294 42.3C48.6067 42.58 48.0187 42.72 47.3654 42.72ZM47.4634 41.838C48.0047 41.838 48.4854 41.726 48.9054 41.502C49.3254 41.2687 49.6567 40.9513 49.8994 40.55C50.1421 40.1393 50.2634 39.668 50.2634 39.136C50.2634 38.604 50.1421 38.1373 49.8994 37.736C49.6567 37.3347 49.3254 37.022 48.9054 36.798C48.4854 36.5647 48.0047 36.448 47.4634 36.448C46.9314 36.448 46.4507 36.5647 46.0214 36.798C45.6014 37.022 45.2701 37.3347 45.0274 37.736C44.7941 38.1373 44.6774 38.604 44.6774 39.136C44.6774 39.668 44.7941 40.1393 45.0274 40.55C45.2701 40.9513 45.6014 41.2687 46.0214 41.502C46.4507 41.726 46.9314 41.838 47.4634 41.838ZM58.6014 43V41.376L58.5594 41.11V38.394C58.5594 37.7687 58.382 37.288 58.0274 36.952C57.682 36.616 57.164 36.448 56.4734 36.448C55.9974 36.448 55.5447 36.5273 55.1154 36.686C54.686 36.8447 54.322 37.0547 54.0234 37.316L53.5754 36.574C53.9487 36.2567 54.3967 36.014 54.9194 35.846C55.442 35.6687 55.9927 35.58 56.5714 35.58C57.5234 35.58 58.256 35.818 58.7694 36.294C59.292 36.7607 59.5534 37.4747 59.5534 38.436V43H58.6014ZM56.0674 43.07C55.5167 43.07 55.036 42.9813 54.6254 42.804C54.224 42.6173 53.916 42.3653 53.7014 42.048C53.4867 41.7213 53.3794 41.348 53.3794 40.928C53.3794 40.5453 53.468 40.2 53.6454 39.892C53.832 39.5747 54.1307 39.3227 54.5414 39.136C54.9614 38.94 55.5214 38.842 56.2214 38.842H58.7554V39.584H56.2494C55.54 39.584 55.0454 39.71 54.7654 39.962C54.4947 40.214 54.3594 40.5267 54.3594 40.9C54.3594 41.32 54.5227 41.656 54.8494 41.908C55.176 42.16 55.6334 42.286 56.2214 42.286C56.7814 42.286 57.262 42.16 57.6634 41.908C58.074 41.6467 58.3727 41.2733 58.5594 40.788L58.7834 41.474C58.5967 41.9593 58.27 42.3467 57.8034 42.636C57.346 42.9253 56.7674 43.07 56.0674 43.07ZM64.5772 43.07C63.8865 43.07 63.3545 42.8833 62.9812 42.51C62.6079 42.1367 62.4212 41.6093 62.4212 40.928V34.026H63.4152V40.872C63.4152 41.3013 63.5225 41.6327 63.7372 41.866C63.9612 42.0993 64.2785 42.216 64.6892 42.216C65.1279 42.216 65.4919 42.09 65.7812 41.838L66.1312 42.552C65.9352 42.7293 65.6972 42.86 65.4172 42.944C65.1465 43.028 64.8665 43.07 64.5772 43.07ZM61.1052 36.476V35.65H65.6552V36.476H61.1052ZM70.6769 43.07C69.9676 43.07 69.3283 42.9113 68.7589 42.594C68.1989 42.2673 67.7556 41.824 67.4289 41.264C67.1023 40.6947 66.9389 40.046 66.9389 39.318C66.9389 38.5807 67.1023 37.932 67.4289 37.372C67.7556 36.812 68.1989 36.3733 68.7589 36.056C69.3189 35.7387 69.9583 35.58 70.6769 35.58C71.4049 35.58 72.0489 35.7387 72.6089 36.056C73.1783 36.3733 73.6216 36.812 73.9389 37.372C74.2656 37.932 74.4289 38.5807 74.4289 39.318C74.4289 40.046 74.2656 40.6947 73.9389 41.264C73.6216 41.824 73.1783 42.2673 72.6089 42.594C72.0396 42.9113 71.3956 43.07 70.6769 43.07ZM70.6769 42.188C71.2089 42.188 71.6803 42.0713 72.0909 41.838C72.5016 41.5953 72.8236 41.2593 73.0569 40.83C73.2996 40.3913 73.4209 39.8873 73.4209 39.318C73.4209 38.7393 73.2996 38.2353 73.0569 37.806C72.8236 37.3767 72.5016 37.0453 72.0909 36.812C71.6803 36.5693 71.2136 36.448 70.6909 36.448C70.1683 36.448 69.7016 36.5693 69.2909 36.812C68.8803 37.0453 68.5536 37.3767 68.3109 37.806C68.0683 38.2353 67.9469 38.7393 67.9469 39.318C67.9469 39.8873 68.0683 40.3913 68.3109 40.83C68.5536 41.2593 68.8803 41.5953 69.2909 41.838C69.7016 42.0713 70.1636 42.188 70.6769 42.188ZM76.4583 43V35.65H77.4103V37.652L77.3123 37.302C77.5176 36.742 77.8629 36.3173 78.3483 36.028C78.8336 35.7293 79.4356 35.58 80.1543 35.58V36.546C80.1169 36.546 80.0796 36.546 80.0423 36.546C80.0049 36.5367 79.9676 36.532 79.9303 36.532C79.1556 36.532 78.5489 36.77 78.1103 37.246C77.6716 37.7127 77.4523 38.38 77.4523 39.248V43H76.4583Z" fill="#B9B9B9"/>
</svg>
